# xmcd
#
# Track frame offsets: 
#        150
#        14802
#        25279
#        39283
#        56654
#        66007
#
# Disc length: 1063 seconds
#
# Revision: 0
# Processed by: cddbd v1.5.2PL0 Copyright (c) Steve Scherf et al.
# Submitted via: ExactAudioCopy v1.0b3
#
DISCID=4b042506
DTITLE=Harry Stinson - Who Is This Man
DYEAR=2011
DGENRE=Country
TTITLE0=Who Is This Man?
TTITLE1=What Jesus Can Do For You
TTITLE2=All I've Done
TTITLE3=The Master Is Waiting
TTITLE4=Jesus, My Captain
TTITLE5=The Pull Of The Water
EXTD=
EXTT0=
EXTT1=
EXTT2=
EXTT3=
EXTT4=
EXTT5=
PLAYORDER=
